<?xml version="1.0" encoding="UTF-8"?>
<svg id="Layer_2" data-name="Layer 2" xmlns="http://www.w3.org/2000/svg" viewBox="0 0 234.07 35.6">
  <defs>
    <style>
      .cls-1 {
        fill: #fff;
      }

      .cls-2 {
        fill: #6f3;
      }

      .cls-3 {
        fill: #ff8e1d;
      }
    </style>
  </defs>
  <g id="Layer_1-2" data-name="Layer 1">
    <g>
      <path class="cls-1" d="M19.22,15.46c-.23-.1-.47-.17-.71-.25,.98-.52,1.78-1.21,2.37-2.09,.65-.97,.97-2.12,.97-3.44,0-1.97-.8-3.55-2.39-4.75-1.6-1.2-3.98-1.8-7.15-1.8H0V28.33H13.03c3.31,0,5.82-.61,7.52-1.82,1.7-1.21,2.56-2.9,2.56-5.06,0-1.46-.34-2.7-1.03-3.71-.68-1.01-1.64-1.77-2.86-2.29Zm-7.63-7.94c1.42,0,2.5,.25,3.26,.74,.76,.49,1.13,1.23,1.13,2.21s-.38,1.76-1.13,2.25c-.76,.49-1.84,.74-3.26,.74H5.8V7.52h5.8Zm4.45,15.68c-.78,.49-1.93,.74-3.44,.74H5.8v-6.23h6.8c1.51,0,2.66,.26,3.44,.77,.78,.52,1.17,1.3,1.17,2.36s-.39,1.87-1.17,2.36Z"/>
      <path class="cls-1" d="M41.17,9.88c-1.52-.8-3.23-1.21-5.13-1.21s-3.73,.43-5.29,1.28-2.79,2.03-3.69,3.53c-.9,1.5-1.35,3.22-1.35,5.17s.46,3.63,1.37,5.13c.91,1.5,2.2,2.68,3.87,3.55,1.67,.86,3.61,1.3,5.81,1.3,1.75,0,3.3-.27,4.64-.81,1.34-.54,2.46-1.31,3.35-2.32l-2.99-3.24c-.65,.62-1.36,1.09-2.14,1.4-.78,.31-1.69,.47-2.72,.47-1.15,0-2.15-.21-3.01-.63s-1.51-1.03-1.98-1.84c-.25-.44-.43-.91-.55-1.42h14.64c.02-.24,.05-.5,.07-.77,.02-.28,.04-.52,.04-.74,0-2.09-.44-3.88-1.33-5.38-.89-1.5-2.09-2.65-3.62-3.46Zm-7.63,3.67c.73-.42,1.58-.63,2.54-.63s1.8,.21,2.52,.63c.72,.42,1.28,1,1.69,1.75,.27,.49,.44,1.05,.53,1.66h-9.52c.09-.6,.26-1.15,.52-1.64,.41-.76,.98-1.34,1.71-1.76Z"/>
      <rect class="cls-1" x="49.86" y="8.96" width="5.62" height="19.37"/>
      <path class="cls-3" d="M52.67,0c-1.03,0-1.87,.3-2.52,.9-.65,.6-.97,1.34-.97,2.23s.32,1.63,.97,2.23c.65,.6,1.49,.9,2.52,.9s1.9-.31,2.54-.92c.64-.61,.95-1.39,.95-2.32,0-.89-.32-1.61-.97-2.18s-1.49-.85-2.52-.85Z"/>
      <path class="cls-1" d="M76.59,9.59c-1.21-.61-2.59-.92-4.12-.92-1.66,0-3.13,.35-4.43,1.04-.77,.41-1.42,.95-1.98,1.57v-2.33h-5.36V28.33h5.62v-9.58c0-1.2,.2-2.18,.59-2.95,.4-.77,.95-1.34,1.66-1.71,.71-.37,1.51-.56,2.39-.56,1.25,0,2.21,.37,2.9,1.12,.68,.74,1.03,1.9,1.03,3.46v10.22h5.62v-11.09c0-1.97-.35-3.58-1.04-4.84-.7-1.26-1.65-2.2-2.86-2.81Z"/>
      <path class="cls-1" d="M100.37,11.45c-.58-.74-1.27-1.35-2.09-1.78-1.25-.66-2.69-.99-4.32-.99-1.8,0-3.43,.38-4.88,1.15-1.45,.77-2.62,1.85-3.49,3.26-.88,1.4-1.31,3.05-1.31,4.95s.44,3.51,1.31,4.91,2.04,2.5,3.49,3.28c1.45,.78,3.08,1.17,4.88,1.17,1.63,0,3.07-.34,4.32-1.01,.69-.37,1.28-.86,1.8-1.44v.86c0,1.75-.45,3.07-1.35,3.96-.9,.89-2.35,1.33-4.34,1.33-1.22,0-2.47-.2-3.73-.59-1.26-.4-2.3-.93-3.11-1.6l-2.23,4.03c1.13,.89,2.54,1.55,4.23,2,1.69,.44,3.45,.67,5.27,.67,3.5,0,6.19-.85,8.06-2.56s2.81-4.36,2.81-7.96V8.96h-5.33v2.48Zm-.86,9.07c-.43,.72-1.03,1.28-1.8,1.67-.77,.4-1.64,.59-2.63,.59s-1.86-.2-2.63-.59c-.77-.4-1.37-.95-1.82-1.67-.44-.72-.67-1.55-.67-2.48s.22-1.79,.67-2.5c.44-.71,1.05-1.26,1.82-1.66,.77-.4,1.64-.59,2.63-.59s1.86,.2,2.63,.59c.77,.4,1.37,.95,1.8,1.66,.43,.71,.65,1.54,.65,2.5s-.22,1.76-.65,2.48Z"/>
      <path class="cls-1" d="M138.6,8.96h-5.33s0,16.13,0,16.13c0,3.6,.94,6.25,2.81,7.96s4.56,2.56,8.06,2.56c1.82,0,3.58-.22,5.27-.67,1.69-.44,3.1-1.11,4.23-2l-2.23-4.03c-.82,.67-1.85,1.21-3.11,1.6-1.26,.4-2.5,.59-3.73,.59-1.99,0-3.44-.45-4.34-1.33-.9-.89-1.35-2.21-1.35-3.96v-.86c.52,.58,1.11,1.07,1.8,1.44,1.25,.67,2.69,1.01,4.32,1.01,1.8,0,3.43-.39,4.88-1.17,1.45-.78,2.62-1.87,3.49-3.28s1.31-3.04,1.31-4.91-.44-3.55-1.31-4.95c-.88-1.4-2.04-2.49-3.49-3.26-1.45-.77-3.08-1.15-4.88-1.15-1.63,0-3.07,.33-4.32,.99-.82,.43-1.51,1.04-2.09,1.78v-2.48Zm.22,9.07c0-.96,.22-1.79,.65-2.5,.43-.71,1.03-1.26,1.8-1.66,.77-.4,1.64-.59,2.63-.59s1.86,.2,2.63,.59c.77,.4,1.37,.95,1.82,1.66,.44,.71,.67,1.54,.67,2.5s-.22,1.76-.67,2.48c-.44,.72-1.05,1.28-1.82,1.67-.77,.4-1.64,.59-2.63,.59s-1.86-.2-2.63-.59c-.77-.4-1.37-.95-1.8-1.67-.43-.72-.65-1.55-.65-2.48Z"/>
      <path class="cls-1" d="M172.49,9.88c-1.52-.8-3.23-1.21-5.13-1.21s-3.73,.43-5.29,1.28c-1.56,.85-2.79,2.03-3.69,3.53-.9,1.5-1.35,3.22-1.35,5.17s.46,3.63,1.37,5.13,2.2,2.68,3.87,3.55,3.61,1.3,5.81,1.3c1.75,0,3.3-.27,4.64-.81,1.34-.54,2.46-1.31,3.35-2.32l-2.99-3.24c-.65,.62-1.36,1.09-2.14,1.4-.78,.31-1.69,.47-2.72,.47-1.15,0-2.15-.21-3.01-.63s-1.51-1.03-1.98-1.84c-.25-.44-.43-.91-.55-1.42h14.64c.02-.24,.05-.5,.07-.77,.02-.28,.04-.52,.04-.74,0-2.09-.45-3.88-1.33-5.38-.89-1.5-2.09-2.65-3.62-3.46Zm-7.63,3.67c.73-.42,1.58-.63,2.54-.63s1.8,.21,2.52,.63,1.28,1,1.69,1.75c.27,.49,.44,1.05,.53,1.66h-9.52c.09-.6,.26-1.15,.53-1.64,.41-.76,.98-1.34,1.71-1.76Z"/>
      <path class="cls-1" d="M195.3,11c-.45-.49-.95-.91-1.51-1.24-1.22-.72-2.65-1.08-4.28-1.08-1.82,0-3.47,.41-4.93,1.22-1.46,.82-2.62,1.97-3.47,3.46-.85,1.49-1.28,3.25-1.28,5.29s.43,3.77,1.28,5.26c.85,1.49,2.01,2.65,3.47,3.47s3.11,1.24,4.93,1.24c1.7,0,3.16-.36,4.37-1.08,.64-.38,1.19-.87,1.67-1.46v2.25h5.36V1.62h-5.62V11Zm-.56,10.51c-.45,.8-1.04,1.42-1.78,1.85-.74,.43-1.57,.65-2.48,.65s-1.78-.22-2.52-.65c-.74-.43-1.34-1.05-1.78-1.85-.44-.8-.67-1.76-.67-2.86s.22-2.09,.67-2.88c.44-.79,1.04-1.4,1.78-1.84,.74-.43,1.58-.65,2.52-.65s1.74,.22,2.48,.65c.74,.43,1.34,1.04,1.78,1.84,.44,.79,.67,1.75,.67,2.88s-.22,2.06-.67,2.86Z"/>
      <rect class="cls-1" x="206.1" y="8.96" width="5.62" height="19.37"/>
      <path class="cls-3" d="M208.91,0c-1.03,0-1.87,.3-2.52,.9-.65,.6-.97,1.34-.97,2.23s.32,1.63,.97,2.23c.65,.6,1.49,.9,2.52,.9s1.9-.31,2.54-.92c.63-.61,.95-1.39,.95-2.32,0-.89-.32-1.61-.97-2.18-.65-.56-1.49-.85-2.52-.85Z"/>
      <path class="cls-1" d="M231.62,10.76c-1.63-1.39-3.92-2.09-6.88-2.09-1.54,0-3.05,.2-4.54,.61-1.49,.41-2.76,.98-3.82,1.73l2.02,3.92c.7-.55,1.54-.99,2.54-1.31,1-.32,2.01-.49,3.04-.49,1.51,0,2.63,.34,3.37,1.01,.73,.67,1.1,1.61,1.1,2.81h-4.46c-1.97,0-3.56,.25-4.79,.74-1.22,.49-2.12,1.17-2.68,2.03-.56,.86-.85,1.87-.85,3.02s.29,2.1,.86,2.99,1.4,1.59,2.48,2.11c1.08,.52,2.38,.77,3.89,.77,1.7,0,3.1-.32,4.18-.97,.74-.44,1.3-1.03,1.73-1.76v2.44h5.26v-11.05c0-2.95-.82-5.12-2.45-6.52Zm-4.79,13.41c-.74,.44-1.58,.67-2.52,.67-.98,0-1.76-.21-2.32-.63-.56-.42-.85-.99-.85-1.71,0-.65,.25-1.19,.74-1.62,.49-.43,1.4-.65,2.72-.65h3.85v1.98c-.34,.86-.88,1.52-1.62,1.96Z"/>
      <g>
        <rect class="cls-3" x="109.98" y="10.09" width="20" height="3"/>
        <rect class="cls-1" x="109.98" y="17.59" width="20" height="3"/>
        <rect class="cls-2" x="109.98" y="25.09" width="20" height="3"/>
      </g>
    </g>
  </g>
</svg>